name analog
datacolumns 19
datarows 18
range 0.0 0.0085
endheader
time	ground_force_vx	ground_force_vy	ground_force_vz	ground_force_px	ground_force_py	ground_force_pz	l_ground_force_vx	l_ground_force_vy	l_ground_force_vz	l_ground_force_px	l_ground_force_py	l_ground_force_pz	ground_torque_x	ground_torque_y	ground_torque_z	l_ground_torque_x	l_ground_torque_y	l_ground_torque_z
0.0	-0.0	-0.0	-0.0	-0.670504629611969	17.156177520751953	-339.588134765625	-1.3306617736816406	-17.830442428588867	-388.7307434082031	-0.0	-0.0	-0.0	-0.0	-0.0	-0.0	109340.3671875	8176.20947265625	-3179.527587890625
0.0005	-0.0	-0.0	-0.0	-0.4136010110378265	17.348005294799805	-339.7913513183594	-1.4974769353866575	-17.94370460510254	-388.3553161621094	-0.0	-0.0	-0.0	-0.0	-0.0	-0.0	109280.3671875	8211.166015625	-3172.581787109375
0.001	-0.0	-0.0	-0.0	0.0217120647430419	17.536996841430664	-341.22418212890625	-1.5080833435058594	-17.75265884399414	-388.6057739257813	-0.0	-0.0	-0.0	-0.0	-0.0	-0.0	109309.6171875	8364.1943359375	-3197.431884765625
0.0015	-0.0	-0.0	-0.0	-0.200210765004158	17.067447662353516	-339.6216125488281	-1.4867160320281982	-17.696247100830078	-388.563720703125	-0.0	-0.0	-0.0	-0.0	-0.0	-0.0	109256.53125	8000.09228515625	-3283.970703125
0.002	-0.0	-0.0	-0.0	0.2021038830280304	17.21307945251465	-339.8023376464844	-1.5967941284179688	-17.932321548461914	-388.4673461914063	-0.0	-0.0	-0.0	-0.0	-0.0	-0.0	109427.8671875	8286.865234375	-3123.995849609375
0.0025	-0.0	-0.0	-0.0	-0.04384046792984	17.067707061767578	-341.0043334960937	-1.1290204524993896	-17.57601547241211	-388.9019165039063	-0.0	-0.0	-0.0	-0.0	-0.0	-0.0	109352.5625	8041.1875	-3175.725341796875
0.003	-0.0	-0.0	-0.0	-0.2456336021423339	17.6710147857666	-340.55255126953125	-1.2311638593673706	-17.653596878051758	-388.6482238769531	-0.0	-0.0	-0.0	-0.0	-0.0	-0.0	109272.6875	8065.4794921875	-3305.2822265625
0.0035	-0.0	-0.0	-0.0	-0.4570781886577606	17.113037109375	-340.4654541015625	-1.008259654045105	-17.476926803588867	-388.6908874511719	-0.0	-0.0	-0.0	-0.0	-0.0	-0.0	109478.7734375	8136.00537109375	-3208.872314453125
0.004	-0.0	-0.0	-0.0	-0.5802156329154968	16.956886291503906	-339.2279357910156	-1.0300800800323486	-17.72916603088379	-388.256591796875	-0.0	-0.0	-0.0	-0.0	-0.0	-0.0	109516.5234375	8192.88671875	-3109.073486328125
0.0045000000000000005	-0.0	-0.0	-0.0	-0.4793625473976135	17.157794952392578	-339.625732421875	-1.3306617736816406	-17.52022361755371	-389.1263427734375	-0.0	-0.0	-0.0	-0.0	-0.0	-0.0	109389.7421875	8431.6630859375	-3216.396240234375
0.005	-0.0	-0.0	-0.0	-0.3010255098342895	17.068552017211914	-339.052734375	-1.5422005653381348	-17.720046997070312	-389.1751403808594	-0.0	-0.0	-0.0	-0.0	-0.0	-0.0	109293.1875	8069.98046875	-3194.70947265625
0.0055	-0.0	-0.0	-0.0	-0.2898303568363189	17.079700469970703	-339.3622436523437	-1.3197059631347656	-17.70796775817871	-388.2134704589844	-0.0	-0.0	-0.0	-0.0	-0.0	-0.0	109168.0703125	8169.74365234375	-3268.83642578125
0.006	-0.0	-0.0	-0.0	-0.6912691593170166	17.591833114624023	-339.934814453125	-1.6972544193267822	-17.962892532348633	-390.00531005859375	-0.0	-0.0	-0.0	-0.0	-0.0	-0.0	109563.890625	8105.56884765625	-3194.7802734375
0.006500000000000001	-0.0	-0.0	-0.0	-0.71368408203125	17.63658332824707	-339.93719482421875	-1.4414386749267578	-17.86294937133789	-388.43206787109375	-0.0	-0.0	-0.0	-0.0	-0.0	-0.0	109375.46875	8221.240234375	-3105.3798828125
0.007	-0.0	-0.0	-0.0	-0.7352815866470337	17.157133102416992	-339.1419677734375	-1.5636277198791504	-17.79668617248535	-388.4752197265625	-0.0	-0.0	-0.0	-0.0	-0.0	-0.0	109082.84375	8221.744140625	-3261.19384765625
0.0075	-0.0	-0.0	-0.0	-0.6018581986427307	17.380428314208984	-343.415283203125	-1.430466651916504	-17.94034767150879	-388.256591796875	-0.0	-0.0	-0.0	-0.0	-0.0	-0.0	109230.9609375	8272.69921875	-3264.90869140625
0.008	-0.0	-0.0	-0.0	-0.3357106447219848	17.357755661010742	-342.40484619140625	-1.3640600442886353	-17.907135009765625	-386.5546875	-0.0	-0.0	-0.0	-0.0	-0.0	-0.0	109104.265625	8406.8583984375	-3261.117431640625
0.0085	-0.0	-0.0	-0.0	-0.5903537273406982	17.101673126220703	-340.1643371582031	-1.619112849235535	-17.895971298217773	-388.5179443359375	-0.0	-0.0	-0.0	-0.0	-0.0	-0.0	109014.1796875	8284.2451171875	-3320.606201171875
